<?xml version="1.0" encoding="utf-8"?>
<!-- Generator: Adobe Illustrator 15.1.0, SVG Export Plug-In . SVG Version: 6.00 Build 0)  -->
<!DOCTYPE svg PUBLIC "-//W3C//DTD SVG 1.1//EN" "http://www.w3.org/Graphics/SVG/1.1/DTD/svg11.dtd">
<svg version="1.1" id="Layer_1" xmlns="http://www.w3.org/2000/svg" xmlns:xlink="http://www.w3.org/1999/xlink" x="0px" y="0px"
	 width="512px" height="512px" viewBox="0 0 512 512" enable-background="new 0 0 512 512" xml:space="preserve">
<path fill="#FFFFFF" d="M44.676,283.054c-0.259-0.91-0.778-1.688-1.816-1.817c-6.098-0.519-12.067-1.04-18.165-1.688
	c-1.039-0.13-1.557,0.519-1.816,1.559c-1.168,3.763-2.206,7.525-3.374,11.158c-0.259,1.037-1.167,1.556-2.206,1.427
	c-4.152-0.52-8.305-1.038-12.456-1.557c-1.946-0.259-2.595-1.556-2.335-2.596c7.136-23.875,14.273-48.007,21.278-72.14
	c0.261-1.039,1.168-1.558,2.207-1.428c5.32,0.519,10.64,1.039,15.958,1.428c1.039,0.129,2.077,0.778,2.207,1.816
	c7.137,25.431,14.142,50.732,21.278,76.034c0.261,1.037-0.519,2.206-2.335,2.077c-4.152-0.263-8.304-0.521-12.457-0.781
	c-1.037-0.13-1.946-0.777-2.206-1.817C47.141,290.969,45.844,287.073,44.676,283.054z M40.395,264.108
	c-1.946-9.083-3.763-18.295-5.708-27.507c-0.131-0.389-0.261-0.519-0.65-0.519c-0.129,0-0.129,0-0.259,0
	c-0.389,0-0.519,0.129-0.648,0.389c-1.946,8.823-3.763,17.646-5.709,26.47c-0.261,0.907,0.259,1.297,0.908,1.297
	c3.633,0.389,7.266,0.647,11.028,1.037C40.135,265.275,40.654,265.016,40.395,264.108z"/>
<path fill="#FFFFFF" d="M140.821,296.546c-0.389,1.17-1.168,1.688-2.206,1.688c-5.97,0.13-11.938,0.26-18.036,0.26
	c-1.039,0-1.946-0.52-2.207-1.688c-6.876-24.653-13.753-49.435-20.63-74.346c-0.389-1.168,0.389-2.726,2.206-2.726
	c4.412,0,8.693,0,13.105,0c1.038,0,2.076,0.389,2.206,1.687c4.411,17.517,8.694,35.032,13.104,52.549
	c0.13,0.39,0.389,0.778,0.778,0.778c0.261,0,0.52,0,0.779,0c0.519,0,0.778-0.389,0.778-0.778
	c4.282-17.646,8.693-35.292,12.975-52.938c0.261-1.298,1.168-1.687,2.207-1.816c4.411-0.13,8.692-0.259,13.104-0.519
	c1.946-0.131,2.594,1.426,2.205,2.594C154.574,246.593,147.698,271.634,140.821,296.546z"/>
<path fill="#FFFFFF" d="M217.633,292.265c0,1.297-1.039,2.334-2.335,2.464c-4.022,0.259-7.916,0.521-11.938,0.78
	c-1.298,0.13-2.335-0.91-2.335-2.077c0-24.65,0-49.435,0-74.086c0-1.298,1.037-2.335,2.335-2.335
	c4.021-0.261,7.914-0.52,11.938-0.779c1.296-0.13,2.335,0.909,2.335,2.076C217.633,242.83,217.633,267.482,217.633,292.265z"/>
<path fill="#FFFFFF" d="M298.986,275.658c-0.259-0.91-0.777-1.688-1.814-1.559c-6.1,0.389-12.069,0.778-18.168,1.167
	c-1.037,0.133-1.556,0.78-1.815,1.818c-1.167,3.892-2.207,7.914-3.374,11.806c-0.259,1.041-1.169,1.818-2.206,1.818
	c-4.152,0.26-8.304,0.519-12.455,0.907c-1.946,0.13-2.596-1.037-2.337-2.077c7.137-25.431,14.273-50.862,21.279-76.163
	c0.26-1.038,1.167-1.815,2.204-1.815c5.321-0.39,10.643-0.779,15.961-1.039c1.04-0.129,2.078,0.519,2.207,1.557
	c7.137,24.393,14.144,48.918,21.28,73.438c0.259,1.037-0.52,2.333-2.337,2.333c-4.151,0.263-8.307,0.521-12.455,0.781
	c-1.04,0.13-1.947-0.519-2.207-1.559C301.45,283.184,300.283,279.418,298.986,275.658z M294.702,257.362
	c-1.944-8.823-3.76-17.776-5.707-26.6c-0.13-0.389-0.259-0.389-0.648-0.389c-0.13,0-0.13,0-0.259,0
	c-0.393,0-0.521,0.129-0.651,0.519c-1.944,9.083-3.76,18.295-5.707,27.376c-0.26,0.91,0.259,1.17,0.91,1.17
	c3.63-0.26,7.263-0.519,11.025-0.781C294.443,258.527,294.962,258.139,294.702,257.362z"/>
<path fill="#FFFFFF" d="M376.965,253.859c-0.777,0-1.166,0.519-1.166,1.167c0,9.341,0,18.685,0,28.028
	c0,1.297-1.041,2.334-2.337,2.334c-4.022,0.13-7.914,0.259-11.937,0.389c-1.299,0-2.336-0.907-2.336-2.204
	c0-24.652,0-49.436,0-74.089c0-1.296,1.037-2.335,2.336-2.335c8.695-0.259,17.518-0.519,26.209-0.648
	c13.754-0.129,25.042,10.64,25.042,23.485c0,8.692-3.892,14.403-12.454,19.851c-1.688,1.168-1.559,2.077-0.778,3.764
	c4.278,9.342,8.562,18.682,12.714,28.155c0.778,1.688,0.13,3.374-2.207,3.374c-4.151,0-8.173,0-12.324,0
	c-1.948,0-2.855-0.908-3.504-2.204c-4.021-9.214-8.044-18.428-12.198-27.638c-0.26-0.52-0.778-1.428-2.204-1.428
	C379.043,253.859,378.006,253.859,376.965,253.859z M376.965,222.46c-0.777,0-1.166,0.519-1.166,1.167c0,4.542,0,8.953,0,13.495
	c0,0.648,0.519,1.167,1.166,1.037c3.634-0.13,7.137-0.13,10.77-0.13c4.544,0,8.304-3.503,8.304-7.914
	c0-4.283-3.76-7.786-8.304-7.786C384.102,222.33,380.469,222.33,376.965,222.46z"/>
<path fill="#FFFFFF" d="M479.208,242.44c0.26,0.649,1.17,0.779,1.429,0.131c3.763-9.991,7.655-19.981,11.418-29.973
	c0.519-1.167,1.167-1.557,2.204-1.427c4.414,0.52,8.695,1.039,13.105,1.687c1.556,0.259,2.597,1.816,1.948,3.374
	c-7.007,15.7-14.014,31.529-21.15,47.489c0,7.654,0,15.439,0,23.094c0,1.3-1.04,2.077-2.336,1.948
	c-4.022-0.39-7.914-0.778-11.937-1.17c-1.3-0.13-2.337-1.167-2.337-2.463c0-7.655,0-15.44,0-23.095
	c-7.006-17.258-14.013-34.515-21.149-51.512c-0.778-1.687,0.389-3.114,1.947-2.985c4.411,0.261,8.692,0.521,13.104,0.909
	c1.04,0.13,1.817,0.519,2.207,1.816C471.553,221.032,475.445,231.802,479.208,242.44z"/>
<path fill="#FFFFFF" d="M223.73,112.171h18.036v3.893h-6.748v17.257h-4.411v-17.387h-6.748v-3.763H223.73z"/>
<path fill="#FFFFFF" d="M266.419,112.171v21.021h-4.41v-8.823h-9.603v8.823h-4.411v-21.021h4.411v8.435h9.603v-8.435H266.419z"/>
<path fill="#FFFFFF" d="M288.217,112.171v3.893h-9.991v4.542h9.081v3.763h-9.081v5.059h9.991v3.894h-14.272v-21.02h14.272V112.171z"
	/>
<path fill="#FFFFFF" d="M246.308,399.569h-3.503l-9.992-14.013v14.013h-4.281v-21.02h4.152l9.342,13.362V378.55h4.283V399.569z"/>
<path fill="#FFFFFF" d="M270.053,378.42h13.105v0.13l-4.414,8.303c2.726,0.907,4.414,2.982,4.414,5.97
	c0,4.411-3.377,7.007-7.396,7.007c-2.858,0-4.673-0.781-5.97-1.818v-4.281c1.556,1.427,3.633,2.334,5.58,2.334
	c2.334,0,3.76-1.037,3.76-3.241c0-2.596-2.463-3.636-5.577-3.636v-0.13l3.633-6.877h-7.136V378.42z"/>
<path fill="#FFFFFF" d="M257.983,390.097c-3.243,0-5.448-2.337-5.448-5.84s2.206-5.837,5.448-5.837c3.247,0,5.451,2.334,5.451,5.837
	S261.23,390.097,257.983,390.097z M257.983,381.143c-1.556,0-2.333,1.296-2.333,3.244c0,1.817,0.908,3.244,2.333,3.244
	c1.559,0,2.337-1.297,2.337-3.244C260.449,382.438,259.542,381.143,257.983,381.143z"/>
<rect x="254.352" y="396.841" fill="#FFFFFF" width="7.267" height="2.729"/>
</svg>
